<?xml version="1.0" encoding="UTF-8" standalone="no"?>
<!DOCTYPE svg PUBLIC "-//W3C//DTD SVG 1.1//EN"
 "http://www.w3.org/Graphics/SVG/1.1/DTD/svg11.dtd">
<!-- Generated by graphviz version 2.44.0 ()
 -->
<!-- Title: G Pages: 1 -->
<svg width="571pt" height="665pt"
 viewBox="0.00 0.00 571.39 665.00" xmlns="http://www.w3.org/2000/svg" xmlns:xlink="http://www.w3.org/1999/xlink">
<g id="graph0" class="graph" transform="scale(1 1) rotate(0) translate(4 661)">
<title>G</title>
<polygon fill="white" stroke="transparent" points="-4,4 -4,-661 567.39,-661 567.39,4 -4,4"/>
<text text-anchor="middle" x="281.69" y="-7.8" font-family="Times,serif" font-size="14.00">Modules</text>
<!-- dtc -->
<g id="node1" class="node">
<title>dtc</title>
<ellipse fill="none" stroke="black" cx="157.6" cy="-187" rx="76.89" ry="18"/>
<text text-anchor="middle" x="157.6" y="-183.3" font-family="Times,serif" font-size="14.00">dex&#45;test&#45;common</text>
</g>
<!-- wi -->
<g id="node8" class="node">
<title>wi</title>
<ellipse fill="none" stroke="black" cx="209.6" cy="-114" rx="85.29" ry="18"/>
<text text-anchor="middle" x="209.6" y="-110.3" font-family="Times,serif" font-size="14.00">waves&#45;integration</text>
</g>
<!-- dtc&#45;&gt;wi -->
<g id="edge1" class="edge">
<title>dtc&#45;&gt;wi</title>
<path fill="none" stroke="black" d="M169.92,-169.17C177.13,-159.33 186.3,-146.8 194.01,-136.27"/>
<polygon fill="black" stroke="black" points="195.46,-137.27 197,-132.2 192.63,-135.2 195.46,-137.27"/>
</g>
<!-- dex -->
<g id="node2" class="node">
<title>dex</title>
<ellipse fill="none" stroke="black" cx="234.6" cy="-271" rx="27" ry="18"/>
<text text-anchor="middle" x="234.6" y="-267.3" font-family="Times,serif" font-size="14.00">dex</text>
</g>
<!-- dex&#45;&gt;dtc -->
<g id="edge3" class="edge">
<title>dex&#45;&gt;dtc</title>
<path fill="none" stroke="black" d="M220.83,-255.34C208.65,-242.37 190.75,-223.3 177.1,-208.77"/>
<polygon fill="black" stroke="black" points="178.06,-207.24 173.37,-204.79 175.51,-209.64 178.06,-207.24"/>
<text text-anchor="middle" x="207.14" y="-237.96" font-family="Times,serif" font-size="11.00">test&#45;&gt;compile</text>
</g>
<!-- dex&#45;&gt;wi -->
<g id="edge2" class="edge">
<title>dex&#45;&gt;wi</title>
<path fill="none" stroke="black" d="M239.77,-253.2C245.2,-232.86 251.89,-197.75 243.6,-169 240.19,-157.19 233.34,-145.46 226.68,-135.98"/>
<polygon fill="black" stroke="black" points="227.99,-134.81 223.65,-131.78 225.16,-136.86 227.99,-134.81"/>
</g>
<!-- dic -->
<g id="node3" class="node">
<title>dic</title>
<ellipse fill="none" stroke="black" cx="241.6" cy="-493" rx="67.69" ry="18"/>
<text text-anchor="middle" x="241.6" y="-489.3" font-family="Times,serif" font-size="14.00">dex&#45;it&#45;common</text>
</g>
<!-- dic&#45;&gt;dtc -->
<g id="edge5" class="edge">
<title>dic&#45;&gt;dtc</title>
<path fill="none" stroke="black" d="M196.28,-479.58C177.31,-471.38 159.6,-458.28 159.6,-438 159.6,-438 159.6,-438 159.6,-270 159.6,-249.91 158.99,-227.07 158.44,-210.6"/>
<polygon fill="black" stroke="black" points="160.18,-210.21 158.26,-205.27 156.68,-210.33 160.18,-210.21"/>
</g>
<!-- dic&#45;&gt;dex -->
<g id="edge4" class="edge">
<title>dic&#45;&gt;dex</title>
<path fill="none" stroke="black" d="M272.63,-476.9C286.42,-467.84 299.6,-454.78 299.6,-438 299.6,-438 299.6,-438 299.6,-326 299.6,-305.62 280.45,-291.45 262.94,-282.76"/>
<polygon fill="black" stroke="black" points="263.33,-281.01 258.06,-280.45 261.83,-284.17 263.33,-281.01"/>
<text text-anchor="middle" x="285.86" y="-425.88" font-family="Times,serif" font-size="11.00">compile;runtime&#45;&gt;provided</text>
</g>
<!-- di -->
<g id="node4" class="node">
<title>di</title>
<ellipse fill="none" stroke="black" cx="337.6" cy="-639" rx="37.09" ry="18"/>
<text text-anchor="middle" x="337.6" y="-635.3" font-family="Times,serif" font-size="14.00">dex&#45;it</text>
</g>
<!-- di&#45;&gt;dex -->
<g id="edge6" class="edge">
<title>di&#45;&gt;dex</title>
<path fill="none" stroke="black" d="M337.6,-620.78C337.6,-606.41 337.6,-585.37 337.6,-567 337.6,-567 337.6,-567 337.6,-326 337.6,-293.36 296.53,-280.41 266.26,-275.3"/>
<polygon fill="black" stroke="black" points="266.33,-273.54 261.12,-274.49 265.79,-277 266.33,-273.54"/>
<text text-anchor="middle" x="348.6" y="-320.13" font-family="Times,serif" font-size="11.00">compile;test&#45;&gt;test</text>
</g>
<!-- di&#45;&gt;dic -->
<g id="edge8" class="edge">
<title>di&#45;&gt;dic</title>
<path fill="none" stroke="black" d="M326.77,-621.76C309.36,-595.65 275.14,-544.32 255.8,-515.3"/>
<polygon fill="black" stroke="black" points="257.06,-514.04 252.83,-510.85 254.14,-515.98 257.06,-514.04"/>
</g>
<!-- wit -->
<g id="node9" class="node">
<title>wit</title>
<ellipse fill="none" stroke="black" cx="464.6" cy="-566" rx="98.58" ry="18"/>
<text text-anchor="middle" x="464.6" y="-562.3" font-family="Times,serif" font-size="14.00">waves&#45;integration&#45;it</text>
</g>
<!-- di&#45;&gt;wit -->
<g id="edge7" class="edge">
<title>di&#45;&gt;wit</title>
<path fill="none" stroke="black" d="M360.89,-624.98C380.41,-614.06 408.54,-598.34 430.58,-586.01"/>
<polygon fill="black" stroke="black" points="431.68,-587.41 435.19,-583.44 429.97,-584.35 431.68,-587.41"/>
</g>
<!-- dl -->
<g id="node5" class="node">
<title>dl</title>
<ellipse fill="none" stroke="black" cx="157.6" cy="-566" rx="46.29" ry="18"/>
<text text-anchor="middle" x="157.6" y="-562.3" font-family="Times,serif" font-size="14.00">dex&#45;load</text>
</g>
<!-- dl&#45;&gt;dex -->
<g id="edge9" class="edge">
<title>dl&#45;&gt;dex</title>
<path fill="none" stroke="black" d="M143.78,-548.67C133.63,-534.99 121.6,-514.45 121.6,-494 121.6,-494 121.6,-494 121.6,-326 121.6,-289.88 169.17,-277.9 202.58,-273.94"/>
<polygon fill="black" stroke="black" points="203.03,-275.65 207.82,-273.37 202.66,-272.17 203.03,-275.65"/>
</g>
<!-- dl&#45;&gt;dic -->
<g id="edge10" class="edge">
<title>dl&#45;&gt;dic</title>
<path fill="none" stroke="black" d="M176.24,-549.24C188.59,-538.8 204.89,-525.02 218.13,-513.83"/>
<polygon fill="black" stroke="black" points="219.44,-515.02 222.13,-510.45 217.18,-512.34 219.44,-515.02"/>
</g>
<!-- wg -->
<g id="node6" class="node">
<title>wg</title>
<ellipse fill="none" stroke="black" cx="54.6" cy="-41" rx="54.69" ry="18"/>
<text text-anchor="middle" x="54.6" y="-37.3" font-family="Times,serif" font-size="14.00">waves&#45;grpc</text>
</g>
<!-- we -->
<g id="node7" class="node">
<title>we</title>
<ellipse fill="none" stroke="black" cx="59.6" cy="-271" rx="50.09" ry="18"/>
<text text-anchor="middle" x="59.6" y="-267.3" font-family="Times,serif" font-size="14.00">waves&#45;ext</text>
</g>
<!-- we&#45;&gt;dtc -->
<g id="edge12" class="edge">
<title>we&#45;&gt;dtc</title>
<path fill="none" stroke="black" d="M62.28,-253.02C64.6,-243.21 68.86,-231.22 76.6,-223 84.42,-214.68 94.57,-208.24 105.01,-203.28"/>
<polygon fill="black" stroke="black" points="105.98,-204.76 109.82,-201.11 104.54,-201.57 105.98,-204.76"/>
<text text-anchor="middle" x="111.1" y="-226.2" font-family="Times,serif" font-size="11.00">test&#45;&gt;compile</text>
</g>
<!-- we&#45;&gt;wg -->
<g id="edge11" class="edge">
<title>we&#45;&gt;wg</title>
<path fill="none" stroke="black" d="M59.22,-252.86C58.33,-212.16 56.08,-109.7 55.08,-64.27"/>
<polygon fill="black" stroke="black" points="56.83,-63.99 54.97,-59.02 53.33,-64.06 56.83,-63.99"/>
</g>
<!-- wi&#45;&gt;wg -->
<g id="edge13" class="edge">
<title>wi&#45;&gt;wg</title>
<path fill="none" stroke="black" d="M175.58,-97.42C150.16,-85.77 115.51,-69.9 89.81,-58.13"/>
<polygon fill="black" stroke="black" points="90.39,-56.47 85.12,-55.98 88.93,-59.65 90.39,-56.47"/>
</g>
<!-- wit&#45;&gt;dic -->
<g id="edge15" class="edge">
<title>wit&#45;&gt;dic</title>
<path fill="none" stroke="black" d="M417.85,-550.12C379.83,-538.01 326.45,-521.02 288.42,-508.91"/>
<polygon fill="black" stroke="black" points="288.69,-507.16 283.39,-507.31 287.63,-510.49 288.69,-507.16"/>
</g>
<!-- wit&#45;&gt;wi -->
<g id="edge14" class="edge">
<title>wit&#45;&gt;wi</title>
<path fill="none" stroke="black" d="M456.92,-547.87C451.28,-533.72 444.6,-512.95 444.6,-494 444.6,-494 444.6,-494 444.6,-186 444.6,-152.72 357.13,-133.62 288.92,-123.79"/>
<polygon fill="black" stroke="black" points="288.82,-122 283.63,-123.04 288.33,-125.47 288.82,-122"/>
</g>
<!-- dj -->
<g id="node10" class="node">
<title>dj</title>
<ellipse fill="none" stroke="black" cx="229.6" cy="-382" rx="41.69" ry="18"/>
<text text-anchor="middle" x="229.6" y="-378.3" font-family="Times,serif" font-size="14.00">dex&#45;jmh</text>
</g>
<!-- dj&#45;&gt;dex -->
<g id="edge16" class="edge">
<title>dj&#45;&gt;dex</title>
<path fill="none" stroke="black" d="M230.38,-363.97C231.24,-345.2 232.63,-314.95 233.57,-294.3"/>
<polygon fill="black" stroke="black" points="235.32,-294.35 233.8,-289.27 231.83,-294.19 235.32,-294.35"/>
<text text-anchor="middle" x="232.56" y="-351.41" font-family="Times,serif" font-size="11.00">compile;test&#45;&gt;test</text>
</g>
</g>
</svg>
