<?xml version="1.0" encoding="UTF-8" standalone="no"?>
<!DOCTYPE svg PUBLIC "-//W3C//DTD SVG 1.1//EN"
 "http://www.w3.org/Graphics/SVG/1.1/DTD/svg11.dtd">
<!-- Generated by graphviz version 2.44.0 ()
 -->
<!-- Title: G Pages: 1 -->
<svg width="581pt" height="394pt"
 viewBox="0.00 0.00 581.00 394.00" xmlns="http://www.w3.org/2000/svg" xmlns:xlink="http://www.w3.org/1999/xlink">
<g id="graph0" class="graph" transform="scale(1 1) rotate(0) translate(4 390)">
<title>G</title>
<polygon fill="white" stroke="transparent" points="-4,4 -4,-390 577,-390 577,4 -4,4"/>
<text text-anchor="middle" x="286.5" y="-7.8" font-family="Times,serif" font-size="14.00">How can transactions affect it</text>
<!-- o -->
<g id="node1" class="node">
<title>o</title>
<polygon fill="none" stroke="black" points="384.5,-386 232.5,-386 232.5,-350 384.5,-350 384.5,-386"/>
<text text-anchor="middle" x="308.5" y="-364.3" font-family="Times,serif" font-size="14.00">observed transaction</text>
</g>
<!-- f -->
<g id="node2" class="node">
<title>f</title>
<polygon fill="none" stroke="black" points="204.5,-277 66.5,-277 66.5,-241 204.5,-241 204.5,-277"/>
<text text-anchor="middle" x="135.5" y="-255.3" font-family="Times,serif" font-size="14.00">failed transaction</text>
</g>
<!-- o&#45;&gt;f -->
<g id="edge1" class="edge">
<title>o:s&#45;&gt;f:n</title>
<path fill="none" stroke="black" d="M308.5,-350C308.5,-268.34 142.85,-356.5 135.74,-282.14"/>
<polygon fill="black" stroke="black" points="137.48,-281.91 135.5,-277 133.98,-282.08 137.48,-281.91"/>
</g>
<!-- u -->
<g id="node3" class="node">
<title>u</title>
<polygon fill="none" stroke="black" points="394.5,-277 222.5,-277 222.5,-241 394.5,-241 394.5,-277"/>
<text text-anchor="middle" x="308.5" y="-255.3" font-family="Times,serif" font-size="14.00">unconfirmed transaction</text>
</g>
<!-- o&#45;&gt;u -->
<g id="edge2" class="edge">
<title>o:s&#45;&gt;u:n</title>
<path fill="none" stroke="black" d="M308.5,-350C308.5,-319.33 308.5,-310.4 308.5,-282.11"/>
<polygon fill="black" stroke="black" points="310.25,-282 308.5,-277 306.75,-282 310.25,-282"/>
</g>
<!-- c -->
<g id="node4" class="node">
<title>c</title>
<polygon fill="none" stroke="black" points="570.5,-277 412.5,-277 412.5,-241 570.5,-241 570.5,-277"/>
<text text-anchor="middle" x="491.5" y="-255.3" font-family="Times,serif" font-size="14.00">confirmed transaction</text>
</g>
<!-- o&#45;&gt;c -->
<g id="edge3" class="edge">
<title>o:s&#45;&gt;c:n</title>
<path fill="none" stroke="black" d="M308.5,-350C308.5,-264.32 483.72,-360.26 491.25,-282.38"/>
<polygon fill="black" stroke="black" points="493.02,-282.08 491.5,-277 489.52,-281.91 493.02,-282.08"/>
</g>
<!-- kf -->
<g id="node7" class="node">
<title>kf</title>
<polygon fill="none" stroke="black" points="135.5,-168 64.95,-150 135.5,-132 206.05,-150 135.5,-168"/>
<text text-anchor="middle" x="135.5" y="-146.3" font-family="Times,serif" font-size="14.00">is known?</text>
</g>
<!-- f&#45;&gt;kf -->
<g id="edge4" class="edge">
<title>f:s&#45;&gt;kf:n</title>
<path fill="none" stroke="black" d="M135.5,-241C135.5,-210.33 135.5,-201.4 135.5,-173.11"/>
<polygon fill="black" stroke="black" points="137.25,-173 135.5,-168 133.75,-173 137.25,-173"/>
</g>
<!-- k -->
<g id="node6" class="node">
<title>k</title>
<polygon fill="none" stroke="black" points="356.5,-168 285.95,-150 356.5,-132 427.05,-150 356.5,-168"/>
<text text-anchor="middle" x="356.5" y="-146.3" font-family="Times,serif" font-size="14.00">is known?</text>
</g>
<!-- u&#45;&gt;k -->
<g id="edge7" class="edge">
<title>u:s&#45;&gt;k:n</title>
<path fill="none" stroke="black" d="M308.5,-241C308.5,-203.99 352.11,-206.49 356.19,-173.18"/>
<polygon fill="black" stroke="black" points="357.95,-173.09 356.5,-168 354.46,-172.89 357.95,-173.09"/>
</g>
<!-- c&#45;&gt;k -->
<g id="edge8" class="edge">
<title>c:s&#45;&gt;k:n</title>
<path fill="none" stroke="black" d="M491.5,-241C491.5,-174.65 363.78,-232.84 356.8,-173.31"/>
<polygon fill="black" stroke="black" points="358.53,-172.89 356.5,-168 355.03,-173.09 358.53,-172.89"/>
</g>
<!-- w -->
<g id="node5" class="node">
<title>w</title>
<polygon fill="none" stroke="black" points="125,-59 0,-59 0,-23 125,-23 125,-59"/>
<text text-anchor="middle" x="62.5" y="-37.3" font-family="Times,serif" font-size="14.00">wait to be known</text>
</g>
<!-- cs -->
<g id="node8" class="node">
<title>cs</title>
<polygon fill="none" stroke="black" points="573,-59 300,-59 300,-23 573,-23 573,-59"/>
<text text-anchor="middle" x="436.5" y="-37.3" font-family="Times,serif" font-size="14.00">compensate spendings for audit balance</text>
</g>
<!-- k&#45;&gt;cs -->
<g id="edge10" class="edge">
<title>k:e&#45;&gt;cs:n</title>
<path fill="none" stroke="black" d="M428.5,-150C467.36,-150 439.17,-103.84 436.67,-64.28"/>
<polygon fill="black" stroke="black" points="438.41,-63.94 436.5,-59 434.91,-64.05 438.41,-63.94"/>
<text text-anchor="middle" x="434" y="-153.2" font-family="Times,serif" font-size="11.00">no</text>
</g>
<!-- r -->
<g id="node9" class="node">
<title>r</title>
<polygon fill="none" stroke="black" points="281.5,-59 143.5,-59 143.5,-23 281.5,-23 281.5,-59"/>
<text text-anchor="middle" x="212.5" y="-37.3" font-family="Times,serif" font-size="14.00">remove from a list</text>
</g>
<!-- k&#45;&gt;r -->
<g id="edge9" class="edge">
<title>k:w&#45;&gt;r:n</title>
<path fill="none" stroke="black" d="M284.5,-150C278.76,-150 226.13,-82.93 214.69,-63.71"/>
<polygon fill="black" stroke="black" points="216.2,-62.8 212.5,-59 213.02,-64.27 216.2,-62.8"/>
</g>
<!-- kf&#45;&gt;w -->
<g id="edge5" class="edge">
<title>kf:w&#45;&gt;w:n</title>
<path fill="none" stroke="black" d="M63.5,-150C24.79,-150 59.26,-103.7 62.29,-64.27"/>
<polygon fill="black" stroke="black" points="64.05,-64.07 62.5,-59 60.55,-63.93 64.05,-64.07"/>
<text text-anchor="middle" x="58" y="-153.2" font-family="Times,serif" font-size="11.00">no</text>
</g>
<!-- kf&#45;&gt;r -->
<g id="edge6" class="edge">
<title>kf:e&#45;&gt;r:n</title>
<path fill="none" stroke="black" d="M207.5,-150C246.26,-150 215.41,-103.75 212.69,-64.27"/>
<polygon fill="black" stroke="black" points="214.43,-63.93 212.5,-59 210.93,-64.06 214.43,-63.93"/>
</g>
</g>
</svg>
