<?xml version="1.0" encoding="UTF-8" standalone="no"?>
<!DOCTYPE svg PUBLIC "-//W3C//DTD SVG 1.1//EN"
 "http://www.w3.org/Graphics/SVG/1.1/DTD/svg11.dtd">
<!-- Generated by graphviz version 2.44.0 ()
 -->
<!-- Title: NodeBranch Pages: 1 -->
<svg width="804pt" height="114pt"
 viewBox="0.00 0.00 804.25 114.19" xmlns="http://www.w3.org/2000/svg" xmlns:xlink="http://www.w3.org/1999/xlink">
<g id="graph0" class="graph" transform="scale(1 1) rotate(0) translate(4 110.19)">
<title>NodeBranch</title>
<polygon fill="white" stroke="transparent" points="-4,4 -4,-110.19 800.25,-110.19 800.25,4 -4,4"/>
<text text-anchor="middle" x="398.13" y="-7.8" font-family="Times,serif" font-size="14.00">Branch</text>
<!-- MB2 -->
<g id="node1" class="node">
<title>MB2</title>
<ellipse fill="#ffe5d9" stroke="#ffe5d9" cx="24.05" cy="-64.6" rx="24.1" ry="24.1"/>
<text text-anchor="start" x="13.55" y="-61.9" font-family="Times,serif" font-size="14.00">µB</text>
<text text-anchor="start" x="27.55" y="-61.9" font-family="Times,serif" baseline-shift="sub" font-size="14.00">2</text>
</g>
<!-- MB1 -->
<g id="node2" class="node">
<title>MB1</title>
<ellipse fill="#ffe5d9" stroke="#ffe5d9" cx="108.14" cy="-64.6" rx="24.1" ry="24.1"/>
<text text-anchor="start" x="97.64" y="-61.9" font-family="Times,serif" font-size="14.00">µB</text>
<text text-anchor="start" x="111.64" y="-61.9" font-family="Times,serif" baseline-shift="sub" font-size="14.00">1</text>
</g>
<!-- MB2&#45;&gt;MB1 -->
<g id="edge1" class="edge">
<title>MB2&#45;&gt;MB1</title>
<path fill="none" stroke="black" d="M48.35,-64.6C57.88,-64.6 68.99,-64.6 78.96,-64.6"/>
<polygon fill="black" stroke="black" points="79.06,-66.35 84.06,-64.6 79.06,-62.85 79.06,-66.35"/>
</g>
<!-- B1000 -->
<g id="node3" class="node">
<title>B1000</title>
<ellipse fill="#f4acb7" stroke="#f4acb7" cx="199.39" cy="-64.6" rx="31.4" ry="31.4"/>
<text text-anchor="start" x="183.39" y="-61.9" font-family="Times,serif" font-size="14.00">B</text>
<text text-anchor="start" x="190.39" y="-61.9" font-family="Times,serif" baseline-shift="sub" font-size="14.00">1000</text>
</g>
<!-- MB1&#45;&gt;B1000 -->
<g id="edge2" class="edge">
<title>MB1&#45;&gt;B1000</title>
<path fill="none" stroke="black" d="M132.59,-64.6C141.83,-64.6 152.64,-64.6 162.8,-64.6"/>
<polygon fill="black" stroke="black" points="163.04,-66.35 168.04,-64.6 163.04,-62.85 163.04,-66.35"/>
</g>
<!-- B999 -->
<g id="node4" class="node">
<title>B999</title>
<ellipse fill="#f4acb7" stroke="#f4acb7" cx="293.88" cy="-64.6" rx="27.1" ry="27.1"/>
<text text-anchor="start" x="280.88" y="-61.9" font-family="Times,serif" font-size="14.00">B</text>
<text text-anchor="start" x="287.88" y="-61.9" font-family="Times,serif" baseline-shift="sub" font-size="14.00">999</text>
</g>
<!-- B1000&#45;&gt;B999 -->
<g id="edge3" class="edge">
<title>B1000&#45;&gt;B999</title>
<path fill="none" stroke="black" d="M230.67,-64.6C240.55,-64.6 251.52,-64.6 261.47,-64.6"/>
<polygon fill="black" stroke="black" points="261.57,-66.35 266.57,-64.6 261.57,-62.85 261.57,-66.35"/>
</g>
<!-- B998 -->
<g id="node5" class="node">
<title>B998</title>
<ellipse fill="#f4acb7" stroke="#f4acb7" cx="384.48" cy="-64.6" rx="27.1" ry="27.1"/>
<text text-anchor="start" x="371.48" y="-61.9" font-family="Times,serif" font-size="14.00">B</text>
<text text-anchor="start" x="378.48" y="-61.9" font-family="Times,serif" baseline-shift="sub" font-size="14.00">998</text>
</g>
<!-- B999&#45;&gt;B998 -->
<g id="edge4" class="edge">
<title>B999&#45;&gt;B998</title>
<path fill="none" stroke="black" d="M321.46,-64.6C331.01,-64.6 341.88,-64.6 351.82,-64.6"/>
<polygon fill="black" stroke="black" points="351.92,-66.35 356.92,-64.6 351.92,-62.85 351.92,-66.35"/>
</g>
<!-- Betc -->
<g id="node6" class="node">
<title>Betc</title>
<ellipse fill="#f4acb7" stroke="#f4acb7" cx="471.82" cy="-64.6" rx="24.1" ry="24.1"/>
<text text-anchor="middle" x="471.82" y="-60.9" font-family="Times,serif" font-size="14.00">...</text>
</g>
<!-- B998&#45;&gt;Betc -->
<g id="edge5" class="edge">
<title>B998&#45;&gt;Betc</title>
<path fill="none" stroke="black" d="M412.01,-64.6C421.77,-64.6 432.83,-64.6 442.72,-64.6"/>
<polygon fill="black" stroke="black" points="442.77,-66.35 447.77,-64.6 442.77,-62.85 442.77,-66.35"/>
</g>
<!-- B901 -->
<g id="node7" class="node">
<title>B901</title>
<ellipse fill="#f4acb7" stroke="#f4acb7" cx="559.17" cy="-64.6" rx="27.1" ry="27.1"/>
<text text-anchor="start" x="546.17" y="-61.9" font-family="Times,serif" font-size="14.00">B</text>
<text text-anchor="start" x="553.17" y="-61.9" font-family="Times,serif" baseline-shift="sub" font-size="14.00">901</text>
</g>
<!-- Betc&#45;&gt;B901 -->
<g id="edge6" class="edge">
<title>Betc&#45;&gt;B901</title>
<path fill="none" stroke="black" d="M496.15,-64.6C505.56,-64.6 516.57,-64.6 526.68,-64.6"/>
<polygon fill="black" stroke="black" points="526.87,-66.35 531.87,-64.6 526.87,-62.85 526.87,-66.35"/>
</g>
<!-- B900 -->
<g id="node8" class="node">
<title>B900</title>
<ellipse fill="#f4acb7" stroke="#f4acb7" cx="649.76" cy="-64.6" rx="27.1" ry="27.1"/>
<text text-anchor="start" x="636.76" y="-61.9" font-family="Times,serif" font-size="14.00">B</text>
<text text-anchor="start" x="643.76" y="-61.9" font-family="Times,serif" baseline-shift="sub" font-size="14.00">900</text>
</g>
<!-- B901&#45;&gt;B900 -->
<g id="edge7" class="edge">
<title>B901&#45;&gt;B900</title>
<path fill="none" stroke="black" d="M586.75,-64.6C596.3,-64.6 607.16,-64.6 617.1,-64.6"/>
<polygon fill="black" stroke="black" points="617.2,-66.35 622.2,-64.6 617.2,-62.85 617.2,-66.35"/>
</g>
<!-- B899 -->
<g id="node9" class="node">
<title>B899</title>
<ellipse fill="none" stroke="black" stroke-dasharray="5,2" cx="754.66" cy="-64.6" rx="41.69" ry="41.69"/>
<text text-anchor="middle" x="754.66" y="-60.9" font-family="Times,serif" font-size="14.00">dropped</text>
</g>
<!-- B900&#45;&gt;B899 -->
<g id="edge8" class="edge">
<title>B900&#45;&gt;B899</title>
<path fill="none" stroke="black" d="M677.26,-64.6C686.58,-64.6 697.33,-64.6 707.77,-64.6"/>
<polygon fill="black" stroke="black" points="707.87,-66.35 712.87,-64.6 707.87,-62.85 707.87,-66.35"/>
</g>
</g>
</svg>
