<?xml version="1.0" encoding="UTF-8" standalone="no"?>
<!DOCTYPE svg PUBLIC "-//W3C//DTD SVG 1.1//EN"
 "http://www.w3.org/Graphics/SVG/1.1/DTD/svg11.dtd">
<!-- Generated by graphviz version 2.44.0 ()
 -->
<!-- Title: MatcherNodeInteraction Pages: 1 -->
<svg width="422pt" height="271pt"
 viewBox="0.00 0.00 422.00 271.00" xmlns="http://www.w3.org/2000/svg" xmlns:xlink="http://www.w3.org/1999/xlink">
<g id="graph0" class="graph" transform="scale(1 1) rotate(0) translate(4 267)">
<title>MatcherNodeInteraction</title>
<polygon fill="white" stroke="transparent" points="-4,4 -4,-267 418,-267 418,4 -4,4"/>
<text text-anchor="middle" x="207" y="-7.8" font-family="Times,serif" font-size="14.00">Matcher&#45;Node interaction</text>
<g id="clust1" class="cluster">
<title>cluster_0</title>
<polygon fill="#56e39f" stroke="#56e39f" points="8,-180 8,-255 406,-255 406,-180 8,-180"/>
<text text-anchor="middle" x="207" y="-239.8" font-family="Times,serif" font-size="14.00">Node</text>
</g>
<g id="clust2" class="cluster">
<title>cluster_1</title>
<polygon fill="#59c9a5" stroke="#59c9a5" points="8,-31 8,-106 406,-106 406,-31 8,-31"/>
<text text-anchor="middle" x="207" y="-90.8" font-family="Times,serif" font-size="14.00">Matcher</text>
</g>
<!-- MBUs -->
<g id="node1" class="node">
<title>MBUs</title>
<polygon fill="none" stroke="black" points="200.5,-224 15.5,-224 15.5,-188 200.5,-188 200.5,-224"/>
<text text-anchor="middle" x="108" y="-202.3" font-family="Times,serif" font-size="14.00">Blockchain Updates server</text>
</g>
<!-- MEs -->
<g id="node2" class="node">
<title>MEs</title>
<polygon fill="none" stroke="black" points="397.5,-224 218.5,-224 218.5,-188 397.5,-188 397.5,-224"/>
<text text-anchor="middle" x="308" y="-202.3" font-family="Times,serif" font-size="14.00">Matcher Extension server</text>
</g>
<!-- MBUs&#45;&gt;MEs -->
<!-- MBUc -->
<g id="node3" class="node">
<title>MBUc</title>
<polygon fill="none" stroke="black" points="200.5,-75 15.5,-75 15.5,-39 200.5,-39 200.5,-75"/>
<text text-anchor="middle" x="108" y="-53.3" font-family="Times,serif" font-size="14.00">Blockchain Updates client</text>
</g>
<!-- MBUs&#45;&gt;MBUc -->
<g id="edge3" class="edge">
<title>MBUs&#45;&gt;MBUc</title>
<path fill="none" stroke="black" stroke-dasharray="5,2" d="M108,-187.73C108,-187.73 108,-80.42 108,-80.42"/>
<polygon fill="black" stroke="black" points="109.75,-80.42 108,-75.42 106.25,-80.42 109.75,-80.42"/>
<text text-anchor="middle" x="97.05" y="-141.76" font-family="Times,serif" font-size="11.00">Blockchain events</text>
</g>
<!-- MEc -->
<g id="node4" class="node">
<title>MEc</title>
<polygon fill="none" stroke="black" points="397.5,-75 218.5,-75 218.5,-39 397.5,-39 397.5,-75"/>
<text text-anchor="middle" x="308" y="-53.3" font-family="Times,serif" font-size="14.00">Matcher Extension client</text>
</g>
<!-- MEs&#45;&gt;MEc -->
<g id="edge4" class="edge">
<title>MEs:sw&#45;&gt;MEc:nw</title>
<path fill="none" stroke="black" stroke-dasharray="5,2" d="M263.25,-188C263.25,-188 263.25,-80 263.25,-80"/>
<polygon fill="black" stroke="black" points="265,-80 263.25,-75 261.5,-80 265,-80"/>
<text text-anchor="middle" x="266.6" y="-120.08" font-family="Times,serif" font-size="11.00">UTX events</text>
</g>
<!-- MBUc&#45;&gt;MEc -->
<!-- MEc&#45;&gt;MEs -->
<g id="edge5" class="edge">
<title>MEc:ne&#45;&gt;MEs:se</title>
<path fill="none" stroke="black" d="M308,-75C308,-75 308,-183 308,-183"/>
<polygon fill="black" stroke="black" points="306.25,-183 308,-188 309.75,-183 306.25,-183"/>
<text text-anchor="middle" x="314.05" y="-160.94" font-family="Times,serif" font-size="11.00">Data request</text>
</g>
<!-- MEc&#45;&gt;MEs -->
<g id="edge6" class="edge">
<title>MEc:ne&#45;&gt;MEs:se</title>
<path fill="none" stroke="black" d="M352.75,-80C352.75,-80 352.75,-188 352.75,-188"/>
<polygon fill="black" stroke="black" points="354.5,-80 352.75,-75 351,-80 354.5,-80"/>
<text text-anchor="middle" x="361.75" y="-146.23" font-family="Times,serif" font-size="11.00">Data response</text>
</g>
</g>
</svg>
