<?xml version="1.0" encoding="UTF-8" standalone="no"?>
<!DOCTYPE svg PUBLIC "-//W3C//DTD SVG 1.1//EN"
 "http://www.w3.org/Graphics/SVG/1.1/DTD/svg11.dtd">
<!-- Generated by graphviz version 2.44.0 ()
 -->
<!-- Title: NodeBranch Pages: 1 -->
<svg width="685pt" height="93pt"
 viewBox="0.00 0.00 685.06 93.39" xmlns="http://www.w3.org/2000/svg" xmlns:xlink="http://www.w3.org/1999/xlink">
<g id="graph0" class="graph" transform="scale(1 1) rotate(0) translate(4 89.39)">
<title>NodeBranch</title>
<polygon fill="white" stroke="transparent" points="-4,4 -4,-89.39 681.06,-89.39 681.06,4 -4,4"/>
<text text-anchor="middle" x="338.53" y="-7.8" font-family="Times,serif" font-size="14.00">Branch</text>
<!-- MB2 -->
<g id="node1" class="node">
<title>MB2</title>
<ellipse fill="#ffe5d9" stroke="#ffe5d9" cx="24.05" cy="-54.2" rx="24.1" ry="24.1"/>
<text text-anchor="start" x="13.55" y="-51.5" font-family="Times,serif" font-size="14.00">µB</text>
<text text-anchor="start" x="27.55" y="-51.5" font-family="Times,serif" baseline-shift="sub" font-size="14.00">2</text>
</g>
<!-- MB1 -->
<g id="node2" class="node">
<title>MB1</title>
<ellipse fill="#ffe5d9" stroke="#ffe5d9" cx="108.14" cy="-54.2" rx="24.1" ry="24.1"/>
<text text-anchor="start" x="97.64" y="-51.5" font-family="Times,serif" font-size="14.00">µB</text>
<text text-anchor="start" x="111.64" y="-51.5" font-family="Times,serif" baseline-shift="sub" font-size="14.00">1</text>
</g>
<!-- MB2&#45;&gt;MB1 -->
<g id="edge1" class="edge">
<title>MB2&#45;&gt;MB1</title>
<path fill="none" stroke="black" d="M48.35,-54.2C57.88,-54.2 68.99,-54.2 78.96,-54.2"/>
<polygon fill="black" stroke="black" points="79.06,-55.95 84.06,-54.2 79.06,-52.45 79.06,-55.95"/>
</g>
<!-- B1000 -->
<g id="node3" class="node">
<title>B1000</title>
<ellipse fill="#f4acb7" stroke="#f4acb7" cx="199.39" cy="-54.2" rx="31.4" ry="31.4"/>
<text text-anchor="start" x="183.39" y="-51.5" font-family="Times,serif" font-size="14.00">B</text>
<text text-anchor="start" x="190.39" y="-51.5" font-family="Times,serif" baseline-shift="sub" font-size="14.00">1000</text>
</g>
<!-- MB1&#45;&gt;B1000 -->
<g id="edge2" class="edge">
<title>MB1&#45;&gt;B1000</title>
<path fill="none" stroke="black" d="M132.59,-54.2C141.83,-54.2 152.64,-54.2 162.8,-54.2"/>
<polygon fill="black" stroke="black" points="163.04,-55.95 168.04,-54.2 163.04,-52.45 163.04,-55.95"/>
</g>
<!-- B999 -->
<g id="node4" class="node">
<title>B999</title>
<ellipse fill="#f4acb7" stroke="#f4acb7" cx="293.88" cy="-54.2" rx="27.1" ry="27.1"/>
<text text-anchor="start" x="280.88" y="-51.5" font-family="Times,serif" font-size="14.00">B</text>
<text text-anchor="start" x="287.88" y="-51.5" font-family="Times,serif" baseline-shift="sub" font-size="14.00">999</text>
</g>
<!-- B1000&#45;&gt;B999 -->
<g id="edge3" class="edge">
<title>B1000&#45;&gt;B999</title>
<path fill="none" stroke="black" d="M230.67,-54.2C240.55,-54.2 251.52,-54.2 261.47,-54.2"/>
<polygon fill="black" stroke="black" points="261.57,-55.95 266.57,-54.2 261.57,-52.45 261.57,-55.95"/>
</g>
<!-- B998 -->
<g id="node5" class="node">
<title>B998</title>
<ellipse fill="#f4acb7" stroke="#f4acb7" cx="384.48" cy="-54.2" rx="27.1" ry="27.1"/>
<text text-anchor="start" x="371.48" y="-51.5" font-family="Times,serif" font-size="14.00">B</text>
<text text-anchor="start" x="378.48" y="-51.5" font-family="Times,serif" baseline-shift="sub" font-size="14.00">998</text>
</g>
<!-- B999&#45;&gt;B998 -->
<g id="edge4" class="edge">
<title>B999&#45;&gt;B998</title>
<path fill="none" stroke="black" d="M321.46,-54.2C331.01,-54.2 341.88,-54.2 351.82,-54.2"/>
<polygon fill="black" stroke="black" points="351.92,-55.95 356.92,-54.2 351.92,-52.45 351.92,-55.95"/>
</g>
<!-- Betc -->
<g id="node6" class="node">
<title>Betc</title>
<ellipse fill="#f4acb7" stroke="#f4acb7" cx="471.82" cy="-54.2" rx="24.1" ry="24.1"/>
<text text-anchor="middle" x="471.82" y="-50.5" font-family="Times,serif" font-size="14.00">...</text>
</g>
<!-- B998&#45;&gt;Betc -->
<g id="edge5" class="edge">
<title>B998&#45;&gt;Betc</title>
<path fill="none" stroke="black" d="M412.01,-54.2C421.77,-54.2 432.83,-54.2 442.72,-54.2"/>
<polygon fill="black" stroke="black" points="442.77,-55.95 447.77,-54.2 442.77,-52.45 442.77,-55.95"/>
</g>
<!-- B901 -->
<g id="node7" class="node">
<title>B901</title>
<ellipse fill="#f4acb7" stroke="#f4acb7" cx="559.17" cy="-54.2" rx="27.1" ry="27.1"/>
<text text-anchor="start" x="546.17" y="-51.5" font-family="Times,serif" font-size="14.00">B</text>
<text text-anchor="start" x="553.17" y="-51.5" font-family="Times,serif" baseline-shift="sub" font-size="14.00">901</text>
</g>
<!-- Betc&#45;&gt;B901 -->
<g id="edge6" class="edge">
<title>Betc&#45;&gt;B901</title>
<path fill="none" stroke="black" d="M496.15,-54.2C505.56,-54.2 516.57,-54.2 526.68,-54.2"/>
<polygon fill="black" stroke="black" points="526.87,-55.95 531.87,-54.2 526.87,-52.45 526.87,-55.95"/>
</g>
<!-- B900 -->
<g id="node8" class="node">
<title>B900</title>
<ellipse fill="#f4acb7" stroke="#f4acb7" cx="649.76" cy="-54.2" rx="27.1" ry="27.1"/>
<text text-anchor="start" x="636.76" y="-51.5" font-family="Times,serif" font-size="14.00">B</text>
<text text-anchor="start" x="643.76" y="-51.5" font-family="Times,serif" baseline-shift="sub" font-size="14.00">900</text>
</g>
<!-- B901&#45;&gt;B900 -->
<g id="edge7" class="edge">
<title>B901&#45;&gt;B900</title>
<path fill="none" stroke="black" d="M586.75,-54.2C596.3,-54.2 607.16,-54.2 617.1,-54.2"/>
<polygon fill="black" stroke="black" points="617.2,-55.95 622.2,-54.2 617.2,-52.45 617.2,-55.95"/>
</g>
</g>
</svg>
