<?xml version="1.0" encoding="UTF-8" standalone="no"?>
<!DOCTYPE svg PUBLIC "-//W3C//DTD SVG 1.1//EN"
 "http://www.w3.org/Graphics/SVG/1.1/DTD/svg11.dtd">
<!-- Generated by graphviz version 2.44.0 ()
 -->
<!-- Title: NodeChain Pages: 1 -->
<svg width="804pt" height="114pt"
 viewBox="0.00 0.00 804.25 114.19" xmlns="http://www.w3.org/2000/svg" xmlns:xlink="http://www.w3.org/1999/xlink">
<g id="graph0" class="graph" transform="scale(1 1) rotate(0) translate(4 110.19)">
<title>NodeChain</title>
<polygon fill="white" stroke="transparent" points="-4,4 -4,-110.19 800.25,-110.19 800.25,4 -4,4"/>
<text text-anchor="middle" x="398.13" y="-7.8" font-family="Times,serif" font-size="14.00">Chain</text>
<!-- MB2 -->
<g id="node1" class="node">
<title>MB2</title>
<ellipse fill="#ffe5d9" stroke="#ffe5d9" cx="772.21" cy="-64.6" rx="24.1" ry="24.1"/>
<text text-anchor="start" x="761.71" y="-61.9" font-family="Times,serif" font-size="14.00">µB</text>
<text text-anchor="start" x="775.71" y="-61.9" font-family="Times,serif" baseline-shift="sub" font-size="14.00">2</text>
</g>
<!-- MB1 -->
<g id="node2" class="node">
<title>MB1</title>
<ellipse fill="#ffe5d9" stroke="#ffe5d9" cx="688.11" cy="-64.6" rx="24.1" ry="24.1"/>
<text text-anchor="start" x="677.61" y="-61.9" font-family="Times,serif" font-size="14.00">µB</text>
<text text-anchor="start" x="691.61" y="-61.9" font-family="Times,serif" baseline-shift="sub" font-size="14.00">1</text>
</g>
<!-- MB2&#45;&gt;MB1 -->
<g id="edge1" class="edge">
<title>MB2&#45;&gt;MB1</title>
<path fill="none" stroke="black" d="M747.9,-64.6C738.37,-64.6 727.27,-64.6 717.29,-64.6"/>
<polygon fill="black" stroke="black" points="717.19,-62.85 712.19,-64.6 717.19,-66.35 717.19,-62.85"/>
</g>
<!-- B1000 -->
<g id="node3" class="node">
<title>B1000</title>
<ellipse fill="#f4acb7" stroke="#f4acb7" cx="596.87" cy="-64.6" rx="31.4" ry="31.4"/>
<text text-anchor="start" x="580.87" y="-61.9" font-family="Times,serif" font-size="14.00">B</text>
<text text-anchor="start" x="587.87" y="-61.9" font-family="Times,serif" baseline-shift="sub" font-size="14.00">1000</text>
</g>
<!-- MB1&#45;&gt;B1000 -->
<g id="edge2" class="edge">
<title>MB1&#45;&gt;B1000</title>
<path fill="none" stroke="black" d="M663.66,-64.6C654.43,-64.6 643.62,-64.6 633.46,-64.6"/>
<polygon fill="black" stroke="black" points="633.22,-62.85 628.22,-64.6 633.22,-66.35 633.22,-62.85"/>
</g>
<!-- B999 -->
<g id="node4" class="node">
<title>B999</title>
<ellipse fill="#f4acb7" stroke="#f4acb7" cx="502.37" cy="-64.6" rx="27.1" ry="27.1"/>
<text text-anchor="start" x="489.37" y="-61.9" font-family="Times,serif" font-size="14.00">B</text>
<text text-anchor="start" x="496.37" y="-61.9" font-family="Times,serif" baseline-shift="sub" font-size="14.00">999</text>
</g>
<!-- B1000&#45;&gt;B999 -->
<g id="edge3" class="edge">
<title>B1000&#45;&gt;B999</title>
<path fill="none" stroke="black" d="M565.58,-64.6C555.71,-64.6 544.73,-64.6 534.78,-64.6"/>
<polygon fill="black" stroke="black" points="534.68,-62.85 529.68,-64.6 534.68,-66.35 534.68,-62.85"/>
</g>
<!-- B998 -->
<g id="node5" class="node">
<title>B998</title>
<ellipse fill="#f4acb7" stroke="#f4acb7" cx="411.78" cy="-64.6" rx="27.1" ry="27.1"/>
<text text-anchor="start" x="398.78" y="-61.9" font-family="Times,serif" font-size="14.00">B</text>
<text text-anchor="start" x="405.78" y="-61.9" font-family="Times,serif" baseline-shift="sub" font-size="14.00">998</text>
</g>
<!-- B999&#45;&gt;B998 -->
<g id="edge4" class="edge">
<title>B999&#45;&gt;B998</title>
<path fill="none" stroke="black" d="M474.79,-64.6C465.24,-64.6 454.38,-64.6 444.44,-64.6"/>
<polygon fill="black" stroke="black" points="444.34,-62.85 439.34,-64.6 444.34,-66.35 444.34,-62.85"/>
</g>
<!-- Betc -->
<g id="node6" class="node">
<title>Betc</title>
<ellipse fill="#f4acb7" stroke="#f4acb7" cx="324.43" cy="-64.6" rx="24.1" ry="24.1"/>
<text text-anchor="middle" x="324.43" y="-60.9" font-family="Times,serif" font-size="14.00">...</text>
</g>
<!-- B998&#45;&gt;Betc -->
<g id="edge5" class="edge">
<title>B998&#45;&gt;Betc</title>
<path fill="none" stroke="black" d="M384.24,-64.6C374.49,-64.6 363.42,-64.6 353.54,-64.6"/>
<polygon fill="black" stroke="black" points="353.49,-62.85 348.49,-64.6 353.49,-66.35 353.49,-62.85"/>
</g>
<!-- B901 -->
<g id="node7" class="node">
<title>B901</title>
<ellipse fill="#f4acb7" stroke="#f4acb7" cx="237.09" cy="-64.6" rx="27.1" ry="27.1"/>
<text text-anchor="start" x="224.09" y="-61.9" font-family="Times,serif" font-size="14.00">B</text>
<text text-anchor="start" x="231.09" y="-61.9" font-family="Times,serif" baseline-shift="sub" font-size="14.00">901</text>
</g>
<!-- Betc&#45;&gt;B901 -->
<g id="edge6" class="edge">
<title>Betc&#45;&gt;B901</title>
<path fill="none" stroke="black" d="M300.11,-64.6C290.7,-64.6 279.69,-64.6 269.58,-64.6"/>
<polygon fill="black" stroke="black" points="269.39,-62.85 264.39,-64.6 269.39,-66.35 269.39,-62.85"/>
</g>
<!-- B900 -->
<g id="node8" class="node">
<title>B900</title>
<ellipse fill="#f4acb7" stroke="#f4acb7" cx="146.49" cy="-64.6" rx="27.1" ry="27.1"/>
<text text-anchor="start" x="133.49" y="-61.9" font-family="Times,serif" font-size="14.00">B</text>
<text text-anchor="start" x="140.49" y="-61.9" font-family="Times,serif" baseline-shift="sub" font-size="14.00">900</text>
</g>
<!-- B901&#45;&gt;B900 -->
<g id="edge7" class="edge">
<title>B901&#45;&gt;B900</title>
<path fill="none" stroke="black" d="M209.5,-64.6C199.96,-64.6 189.09,-64.6 179.15,-64.6"/>
<polygon fill="black" stroke="black" points="179.05,-62.85 174.05,-64.6 179.05,-66.35 179.05,-62.85"/>
</g>
<!-- B899 -->
<g id="node9" class="node">
<title>B899</title>
<ellipse fill="none" stroke="black" stroke-dasharray="5,2" cx="41.6" cy="-64.6" rx="41.69" ry="41.69"/>
<text text-anchor="middle" x="41.6" y="-60.9" font-family="Times,serif" font-size="14.00">dropped</text>
</g>
<!-- B900&#45;&gt;B899 -->
<g id="edge8" class="edge">
<title>B900&#45;&gt;B899</title>
<path fill="none" stroke="black" d="M118.99,-64.6C109.68,-64.6 98.93,-64.6 88.48,-64.6"/>
<polygon fill="black" stroke="black" points="88.39,-62.85 83.39,-64.6 88.39,-66.35 88.39,-62.85"/>
</g>
</g>
</svg>
