<?xml version="1.0" encoding="UTF-8" standalone="no"?>
<!DOCTYPE svg PUBLIC "-//W3C//DTD SVG 1.1//EN"
 "http://www.w3.org/Graphics/SVG/1.1/DTD/svg11.dtd">
<!-- Generated by graphviz version 2.44.0 ()
 -->
<!-- Title: MatcherNodeStreams Pages: 1 -->
<svg width="1354pt" height="288pt"
 viewBox="0.00 0.00 1354.00 288.00" xmlns="http://www.w3.org/2000/svg" xmlns:xlink="http://www.w3.org/1999/xlink">
<g id="graph0" class="graph" transform="scale(1 1) rotate(0) translate(4 284)">
<title>MatcherNodeStreams</title>
<polygon fill="white" stroke="transparent" points="-4,4 -4,-284 1350,-284 1350,4 -4,4"/>
<text text-anchor="middle" x="673" y="-7.8" font-family="Times,serif" font-size="14.00">Node streams</text>
<g id="clust1" class="cluster">
<title>cluster_0</title>
<polygon fill="#dfcc74" stroke="#dfcc74" points="188,-197 188,-272 528,-272 528,-197 188,-197"/>
<text text-anchor="middle" x="358" y="-256.8" font-family="Times,serif" font-size="14.00">Blockchain events</text>
</g>
<g id="clust2" class="cluster">
<title>cluster_1</title>
<polygon fill="#c3e991" stroke="#c3e991" points="8,-114 8,-189 528,-189 528,-114 8,-114"/>
<text text-anchor="middle" x="268" y="-173.8" font-family="Times,serif" font-size="14.00">Utx events</text>
</g>
<g id="clust3" class="cluster">
<title>cluster_2</title>
<polygon fill="#cb904d" stroke="#cb904d" points="98,-31 98,-106 528,-106 528,-31 98,-31"/>
<text text-anchor="middle" x="313" y="-90.8" font-family="Times,serif" font-size="14.00">Data events</text>
</g>
<g id="clust4" class="cluster">
<title>cluster_3</title>
<polygon fill="#51a3a3" stroke="#51a3a3" points="548,-114 548,-189 1338,-189 1338,-114 548,-114"/>
<text text-anchor="middle" x="943" y="-173.8" font-family="Times,serif" font-size="14.00">Combined events</text>
</g>
<!-- B1 -->
<g id="node1" class="node">
<title>B1</title>
<polygon fill="none" stroke="black" points="250,-241 196,-241 196,-205 250,-205 250,-241"/>
<text text-anchor="middle" x="223" y="-219.3" font-family="Times,serif" font-size="14.00">B1</text>
</g>
<!-- B2 -->
<g id="node2" class="node">
<title>B2</title>
<polygon fill="none" stroke="black" points="340,-241 286,-241 286,-205 340,-205 340,-241"/>
<text text-anchor="middle" x="313" y="-219.3" font-family="Times,serif" font-size="14.00">B2</text>
</g>
<!-- B1&#45;&gt;B2 -->
<g id="edge1" class="edge">
<title>B1&#45;&gt;B2</title>
<path fill="none" stroke="black" d="M250.4,-223C259.97,-223 270.87,-223 280.82,-223"/>
<polygon fill="black" stroke="black" points="280.92,-224.75 285.92,-223 280.92,-221.25 280.92,-224.75"/>
</g>
<!-- B3 -->
<g id="node3" class="node">
<title>B3</title>
<polygon fill="none" stroke="black" points="520,-241 466,-241 466,-205 520,-205 520,-241"/>
<text text-anchor="middle" x="493" y="-219.3" font-family="Times,serif" font-size="14.00">B3</text>
</g>
<!-- B2&#45;&gt;B3 -->
<g id="edge2" class="edge">
<title>B2&#45;&gt;B3</title>
<path fill="none" stroke="black" d="M340.26,-223C372.3,-223 426.4,-223 460.61,-223"/>
<polygon fill="black" stroke="black" points="460.92,-224.75 465.92,-223 460.92,-221.25 460.92,-224.75"/>
</g>
<!-- cU1 -->
<g id="node10" class="node">
<title>cU1</title>
<polygon fill="#c3e991" stroke="#c3e991" points="610,-158 556,-158 556,-122 610,-122 610,-158"/>
<text text-anchor="middle" x="583" y="-136.3" font-family="Times,serif" font-size="14.00">U1</text>
</g>
<!-- B3&#45;&gt;cU1 -->
<g id="edge15" class="edge">
<title>B3&#45;&gt;cU1</title>
<path fill="none" stroke="black" d="M523.65,-197C525.13,-195.66 526.59,-194.32 528,-193 533.32,-188.05 538.86,-182.77 544.27,-177.53"/>
<polygon fill="black" stroke="black" points="545.63,-178.65 548,-173.91 543.19,-176.13 545.63,-178.65"/>
</g>
<!-- U1 -->
<g id="node4" class="node">
<title>U1</title>
<polygon fill="none" stroke="black" points="70,-158 16,-158 16,-122 70,-122 70,-158"/>
<text text-anchor="middle" x="43" y="-136.3" font-family="Times,serif" font-size="14.00">U1</text>
</g>
<!-- U2 -->
<g id="node5" class="node">
<title>U2</title>
<polygon fill="none" stroke="black" points="250,-158 196,-158 196,-122 250,-122 250,-158"/>
<text text-anchor="middle" x="223" y="-136.3" font-family="Times,serif" font-size="14.00">U2</text>
</g>
<!-- U1&#45;&gt;U2 -->
<g id="edge3" class="edge">
<title>U1&#45;&gt;U2</title>
<path fill="none" stroke="black" d="M70.26,-140C102.3,-140 156.4,-140 190.61,-140"/>
<polygon fill="black" stroke="black" points="190.92,-141.75 195.92,-140 190.92,-138.25 190.92,-141.75"/>
</g>
<!-- U3 -->
<g id="node6" class="node">
<title>U3</title>
<polygon fill="none" stroke="black" points="520,-158 466,-158 466,-122 520,-122 520,-158"/>
<text text-anchor="middle" x="493" y="-136.3" font-family="Times,serif" font-size="14.00">U3</text>
</g>
<!-- U2&#45;&gt;U3 -->
<g id="edge4" class="edge">
<title>U2&#45;&gt;U3</title>
<path fill="none" stroke="black" d="M250.18,-140C299.72,-140 406.95,-140 460.4,-140"/>
<polygon fill="black" stroke="black" points="460.71,-141.75 465.71,-140 460.71,-138.25 460.71,-141.75"/>
</g>
<!-- U3&#45;&gt;cU1 -->
<g id="edge16" class="edge">
<title>U3&#45;&gt;cU1</title>
<path fill="none" stroke="black" d="M528,-140C532.85,-140 537.86,-140 542.8,-140"/>
<polygon fill="black" stroke="black" points="543,-141.75 548,-140 543,-138.25 543,-141.75"/>
</g>
<!-- D1 -->
<g id="node7" class="node">
<title>D1</title>
<polygon fill="none" stroke="black" points="160,-75 106,-75 106,-39 160,-39 160,-75"/>
<text text-anchor="middle" x="133" y="-53.3" font-family="Times,serif" font-size="14.00">D1</text>
</g>
<!-- D2 -->
<g id="node8" class="node">
<title>D2</title>
<polygon fill="none" stroke="black" points="430,-75 376,-75 376,-39 430,-39 430,-75"/>
<text text-anchor="middle" x="403" y="-53.3" font-family="Times,serif" font-size="14.00">D2</text>
</g>
<!-- D1&#45;&gt;D2 -->
<g id="edge5" class="edge">
<title>D1&#45;&gt;D2</title>
<path fill="none" stroke="black" d="M160.18,-57C209.72,-57 316.95,-57 370.4,-57"/>
<polygon fill="black" stroke="black" points="370.71,-58.75 375.71,-57 370.71,-55.25 370.71,-58.75"/>
</g>
<!-- D3 -->
<g id="node9" class="node">
<title>D3</title>
<polygon fill="none" stroke="black" points="520,-75 466,-75 466,-39 520,-39 520,-75"/>
<text text-anchor="middle" x="493" y="-53.3" font-family="Times,serif" font-size="14.00">D3</text>
</g>
<!-- D2&#45;&gt;D3 -->
<g id="edge6" class="edge">
<title>D2&#45;&gt;D3</title>
<path fill="none" stroke="black" d="M430.4,-57C439.97,-57 450.87,-57 460.82,-57"/>
<polygon fill="black" stroke="black" points="460.92,-58.75 465.92,-57 460.92,-55.25 460.92,-58.75"/>
</g>
<!-- D3&#45;&gt;cU1 -->
<g id="edge17" class="edge">
<title>D3&#45;&gt;cU1</title>
<path fill="none" stroke="black" d="M528,-89.06C535.43,-96.08 543.27,-103.47 550.6,-110.38"/>
<polygon fill="black" stroke="black" points="549.6,-111.84 554.44,-114 552,-109.3 549.6,-111.84"/>
</g>
<!-- cD1 -->
<g id="node11" class="node">
<title>cD1</title>
<polygon fill="#cb904d" stroke="#cb904d" points="700,-158 646,-158 646,-122 700,-122 700,-158"/>
<text text-anchor="middle" x="673" y="-136.3" font-family="Times,serif" font-size="14.00">D1</text>
</g>
<!-- cU1&#45;&gt;cD1 -->
<g id="edge7" class="edge">
<title>cU1&#45;&gt;cD1</title>
<path fill="none" stroke="black" d="M610.4,-140C619.97,-140 630.87,-140 640.82,-140"/>
<polygon fill="black" stroke="black" points="640.92,-141.75 645.92,-140 640.92,-138.25 640.92,-141.75"/>
</g>
<!-- cB1 -->
<g id="node12" class="node">
<title>cB1</title>
<polygon fill="#dfcc74" stroke="#dfcc74" points="790,-158 736,-158 736,-122 790,-122 790,-158"/>
<text text-anchor="middle" x="763" y="-136.3" font-family="Times,serif" font-size="14.00">B1</text>
</g>
<!-- cD1&#45;&gt;cB1 -->
<g id="edge8" class="edge">
<title>cD1&#45;&gt;cB1</title>
<path fill="none" stroke="black" d="M700.4,-140C709.97,-140 720.87,-140 730.82,-140"/>
<polygon fill="black" stroke="black" points="730.92,-141.75 735.92,-140 730.92,-138.25 730.92,-141.75"/>
</g>
<!-- cU2 -->
<g id="node13" class="node">
<title>cU2</title>
<polygon fill="#c3e991" stroke="#c3e991" points="880,-158 826,-158 826,-122 880,-122 880,-158"/>
<text text-anchor="middle" x="853" y="-136.3" font-family="Times,serif" font-size="14.00">U2</text>
</g>
<!-- cB1&#45;&gt;cU2 -->
<g id="edge9" class="edge">
<title>cB1&#45;&gt;cU2</title>
<path fill="none" stroke="black" d="M790.4,-140C799.97,-140 810.87,-140 820.82,-140"/>
<polygon fill="black" stroke="black" points="820.92,-141.75 825.92,-140 820.92,-138.25 820.92,-141.75"/>
</g>
<!-- cB2 -->
<g id="node14" class="node">
<title>cB2</title>
<polygon fill="#dfcc74" stroke="#dfcc74" points="970,-158 916,-158 916,-122 970,-122 970,-158"/>
<text text-anchor="middle" x="943" y="-136.3" font-family="Times,serif" font-size="14.00">B2</text>
</g>
<!-- cU2&#45;&gt;cB2 -->
<g id="edge10" class="edge">
<title>cU2&#45;&gt;cB2</title>
<path fill="none" stroke="black" d="M880.4,-140C889.97,-140 900.87,-140 910.82,-140"/>
<polygon fill="black" stroke="black" points="910.92,-141.75 915.92,-140 910.92,-138.25 910.92,-141.75"/>
</g>
<!-- cD2 -->
<g id="node15" class="node">
<title>cD2</title>
<polygon fill="#cb904d" stroke="#cb904d" points="1060,-158 1006,-158 1006,-122 1060,-122 1060,-158"/>
<text text-anchor="middle" x="1033" y="-136.3" font-family="Times,serif" font-size="14.00">D2</text>
</g>
<!-- cB2&#45;&gt;cD2 -->
<g id="edge11" class="edge">
<title>cB2&#45;&gt;cD2</title>
<path fill="none" stroke="black" d="M970.4,-140C979.97,-140 990.87,-140 1000.82,-140"/>
<polygon fill="black" stroke="black" points="1000.92,-141.75 1005.92,-140 1000.92,-138.25 1000.92,-141.75"/>
</g>
<!-- cB3 -->
<g id="node16" class="node">
<title>cB3</title>
<polygon fill="#dfcc74" stroke="#dfcc74" points="1150,-158 1096,-158 1096,-122 1150,-122 1150,-158"/>
<text text-anchor="middle" x="1123" y="-136.3" font-family="Times,serif" font-size="14.00">B3</text>
</g>
<!-- cD2&#45;&gt;cB3 -->
<g id="edge12" class="edge">
<title>cD2&#45;&gt;cB3</title>
<path fill="none" stroke="black" d="M1060.4,-140C1069.97,-140 1080.87,-140 1090.82,-140"/>
<polygon fill="black" stroke="black" points="1090.92,-141.75 1095.92,-140 1090.92,-138.25 1090.92,-141.75"/>
</g>
<!-- cU3 -->
<g id="node17" class="node">
<title>cU3</title>
<polygon fill="#c3e991" stroke="#c3e991" points="1240,-158 1186,-158 1186,-122 1240,-122 1240,-158"/>
<text text-anchor="middle" x="1213" y="-136.3" font-family="Times,serif" font-size="14.00">U3</text>
</g>
<!-- cB3&#45;&gt;cU3 -->
<g id="edge13" class="edge">
<title>cB3&#45;&gt;cU3</title>
<path fill="none" stroke="black" d="M1150.4,-140C1159.97,-140 1170.87,-140 1180.82,-140"/>
<polygon fill="black" stroke="black" points="1180.92,-141.75 1185.92,-140 1180.92,-138.25 1180.92,-141.75"/>
</g>
<!-- cD3 -->
<g id="node18" class="node">
<title>cD3</title>
<polygon fill="#cb904d" stroke="#cb904d" points="1330,-158 1276,-158 1276,-122 1330,-122 1330,-158"/>
<text text-anchor="middle" x="1303" y="-136.3" font-family="Times,serif" font-size="14.00">D3</text>
</g>
<!-- cU3&#45;&gt;cD3 -->
<g id="edge14" class="edge">
<title>cU3&#45;&gt;cD3</title>
<path fill="none" stroke="black" d="M1240.4,-140C1249.97,-140 1260.87,-140 1270.82,-140"/>
<polygon fill="black" stroke="black" points="1270.92,-141.75 1275.92,-140 1270.92,-138.25 1270.92,-141.75"/>
</g>
</g>
</svg>
