<?xml version="1.0" encoding="UTF-8" standalone="no"?>
<!DOCTYPE svg PUBLIC "-//W3C//DTD SVG 1.1//EN"
 "http://www.w3.org/Graphics/SVG/1.1/DTD/svg11.dtd">
<!-- Generated by graphviz version 2.44.0 ()
 -->
<!-- Title: NodeNotResolvedFork Pages: 1 -->
<svg width="724pt" height="205pt"
 viewBox="0.00 0.00 724.00 205.00" xmlns="http://www.w3.org/2000/svg" xmlns:xlink="http://www.w3.org/1999/xlink">
<g id="graph0" class="graph" transform="scale(1 1) rotate(0) translate(4 201)">
<title>NodeNotResolvedFork</title>
<polygon fill="white" stroke="transparent" points="-4,4 -4,-201 720,-201 720,4 -4,4"/>
<text text-anchor="middle" x="358" y="-7.8" font-family="Times,serif" font-size="14.00">Not resolved fork</text>
<g id="clust1" class="cluster">
<title>cluster_0</title>
<polygon fill="none" stroke="black" points="8,-114 8,-189 708,-189 708,-114 8,-114"/>
<text text-anchor="middle" x="358" y="-173.8" font-family="Times,serif" font-size="14.00">Original chain</text>
</g>
<g id="clust2" class="cluster">
<title>cluster_1</title>
<polygon fill="none" stroke="black" points="188,-31 188,-106 708,-106 708,-31 188,-31"/>
<text text-anchor="middle" x="448" y="-90.8" font-family="Times,serif" font-size="14.00">New main chain</text>
</g>
<!-- MB2 -->
<g id="node1" class="node">
<title>MB2</title>
<polygon fill="#ffe5d9" stroke="#ffe5d9" points="700,-158 646,-158 646,-122 700,-122 700,-158"/>
<text text-anchor="start" x="662.5" y="-137.3" font-family="Times,serif" font-size="14.00">µB</text>
<text text-anchor="start" x="676.5" y="-137.3" font-family="Times,serif" baseline-shift="sub" font-size="14.00">2</text>
</g>
<!-- MB1 -->
<g id="node2" class="node">
<title>MB1</title>
<polygon fill="#ffe5d9" stroke="#ffe5d9" points="610,-158 556,-158 556,-122 610,-122 610,-158"/>
<text text-anchor="start" x="572.5" y="-137.3" font-family="Times,serif" font-size="14.00">µB</text>
<text text-anchor="start" x="586.5" y="-137.3" font-family="Times,serif" baseline-shift="sub" font-size="14.00">1</text>
</g>
<!-- MB2&#45;&gt;MB1 -->
<g id="edge1" class="edge">
<title>MB2&#45;&gt;MB1</title>
<path fill="none" stroke="black" d="M646,-140C646,-140 615.29,-140 615.29,-140"/>
<polygon fill="black" stroke="black" points="615.3,-138.25 610.29,-140 615.29,-141.75 615.3,-138.25"/>
</g>
<!-- B1000 -->
<g id="node3" class="node">
<title>B1000</title>
<polygon fill="#f4acb7" stroke="#f4acb7" points="520,-158 466,-158 466,-122 520,-122 520,-158"/>
<text text-anchor="start" x="477" y="-137.3" font-family="Times,serif" font-size="14.00">B</text>
<text text-anchor="start" x="484" y="-137.3" font-family="Times,serif" baseline-shift="sub" font-size="14.00">1000</text>
</g>
<!-- MB1&#45;&gt;B1000 -->
<g id="edge2" class="edge">
<title>MB1&#45;&gt;B1000</title>
<path fill="none" stroke="black" d="M556,-140C556,-140 525.29,-140 525.29,-140"/>
<polygon fill="black" stroke="black" points="525.3,-138.25 520.29,-140 525.29,-141.75 525.3,-138.25"/>
</g>
<!-- B999 -->
<g id="node4" class="node">
<title>B999</title>
<polygon fill="#f4acb7" stroke="#f4acb7" points="430,-158 376,-158 376,-122 430,-122 430,-158"/>
<text text-anchor="start" x="390" y="-137.3" font-family="Times,serif" font-size="14.00">B</text>
<text text-anchor="start" x="397" y="-137.3" font-family="Times,serif" baseline-shift="sub" font-size="14.00">999</text>
</g>
<!-- B1000&#45;&gt;B999 -->
<g id="edge3" class="edge">
<title>B1000&#45;&gt;B999</title>
<path fill="none" stroke="black" d="M466,-140C466,-140 435.29,-140 435.29,-140"/>
<polygon fill="black" stroke="black" points="435.3,-138.25 430.29,-140 435.29,-141.75 435.3,-138.25"/>
</g>
<!-- B998 -->
<g id="node5" class="node">
<title>B998</title>
<polygon fill="#f4acb7" stroke="#f4acb7" points="340,-158 286,-158 286,-122 340,-122 340,-158"/>
<text text-anchor="start" x="300" y="-137.3" font-family="Times,serif" font-size="14.00">B</text>
<text text-anchor="start" x="307" y="-137.3" font-family="Times,serif" baseline-shift="sub" font-size="14.00">998</text>
</g>
<!-- B999&#45;&gt;B998 -->
<g id="edge4" class="edge">
<title>B999&#45;&gt;B998</title>
<path fill="none" stroke="black" d="M376,-140C376,-140 345.29,-140 345.29,-140"/>
<polygon fill="black" stroke="black" points="345.3,-138.25 340.29,-140 345.29,-141.75 345.3,-138.25"/>
</g>
<!-- Betc -->
<g id="node6" class="node">
<title>Betc</title>
<polygon fill="#f4acb7" stroke="#f4acb7" points="250,-158 196,-158 196,-122 250,-122 250,-158"/>
<text text-anchor="middle" x="223" y="-136.3" font-family="Times,serif" font-size="14.00">...</text>
</g>
<!-- B998&#45;&gt;Betc -->
<g id="edge5" class="edge">
<title>B998&#45;&gt;Betc</title>
<path fill="none" stroke="black" d="M286,-140C286,-140 255.29,-140 255.29,-140"/>
<polygon fill="black" stroke="black" points="255.3,-138.25 250.29,-140 255.29,-141.75 255.3,-138.25"/>
</g>
<!-- B901 -->
<g id="node7" class="node">
<title>B901</title>
<polygon fill="#f4acb7" stroke="#f4acb7" points="160,-158 106,-158 106,-122 160,-122 160,-158"/>
<text text-anchor="start" x="120" y="-137.3" font-family="Times,serif" font-size="14.00">B</text>
<text text-anchor="start" x="127" y="-137.3" font-family="Times,serif" baseline-shift="sub" font-size="14.00">901</text>
</g>
<!-- Betc&#45;&gt;B901 -->
<g id="edge6" class="edge">
<title>Betc&#45;&gt;B901</title>
<path fill="none" stroke="black" d="M196,-140C196,-140 165.29,-140 165.29,-140"/>
<polygon fill="black" stroke="black" points="165.3,-138.25 160.29,-140 165.29,-141.75 165.3,-138.25"/>
</g>
<!-- B900 -->
<g id="node8" class="node">
<title>B900</title>
<polygon fill="#f4acb7" stroke="#f4acb7" points="70,-158 16,-158 16,-122 70,-122 70,-158"/>
<text text-anchor="start" x="30" y="-137.3" font-family="Times,serif" font-size="14.00">B</text>
<text text-anchor="start" x="37" y="-137.3" font-family="Times,serif" baseline-shift="sub" font-size="14.00">900</text>
</g>
<!-- B901&#45;&gt;B900 -->
<g id="edge7" class="edge">
<title>B901&#45;&gt;B900</title>
<path fill="none" stroke="black" d="M106,-140C106,-140 75.29,-140 75.29,-140"/>
<polygon fill="black" stroke="black" points="75.3,-138.25 70.29,-140 75.29,-141.75 75.3,-138.25"/>
</g>
<!-- MB2_ -->
<g id="node9" class="node">
<title>MB2_</title>
</g>
<!-- B999_ -->
<g id="node10" class="node">
<title>B999_</title>
<polygon fill="#9d8189" stroke="#9d8189" points="430,-75 376,-75 376,-39 430,-39 430,-75"/>
<text text-anchor="start" x="386.5" y="-54.3" font-family="Times,serif" font-size="14.00" fill="#ffffff">B</text>
<text text-anchor="start" x="393.5" y="-54.3" font-family="Times,serif" baseline-shift="sub" font-size="14.00" fill="#ffffff">999</text>
<text text-anchor="start" x="412.5" y="-54.3" font-family="Times,serif" font-size="14.00" fill="#ffffff">&#39;</text>
</g>
<!-- Betc_ -->
<g id="node11" class="node">
<title>Betc_</title>
<polygon fill="#9d8189" stroke="#9d8189" points="340,-75 286,-75 286,-39 340,-39 340,-75"/>
<text text-anchor="middle" x="313" y="-53.3" font-family="Times,serif" font-size="14.00" fill="#ffffff">...</text>
</g>
<!-- B999_&#45;&gt;Betc_ -->
<g id="edge8" class="edge">
<title>B999_&#45;&gt;Betc_</title>
<path fill="none" stroke="black" d="M376,-57C376,-57 345.29,-57 345.29,-57"/>
<polygon fill="black" stroke="black" points="345.3,-55.25 340.29,-57 345.29,-58.75 345.3,-55.25"/>
</g>
<!-- B902_ -->
<g id="node12" class="node">
<title>B902_</title>
<polygon fill="#9d8189" stroke="#9d8189" points="250,-75 196,-75 196,-39 250,-39 250,-75"/>
<text text-anchor="start" x="206.5" y="-54.3" font-family="Times,serif" font-size="14.00" fill="#ffffff">B</text>
<text text-anchor="start" x="213.5" y="-54.3" font-family="Times,serif" baseline-shift="sub" font-size="14.00" fill="#ffffff">902</text>
<text text-anchor="start" x="232.5" y="-54.3" font-family="Times,serif" font-size="14.00" fill="#ffffff">&#39;</text>
</g>
<!-- Betc_&#45;&gt;B902_ -->
<g id="edge9" class="edge">
<title>Betc_&#45;&gt;B902_</title>
<path fill="none" stroke="black" d="M286,-57C286,-57 255.29,-57 255.29,-57"/>
<polygon fill="black" stroke="black" points="255.3,-55.25 250.29,-57 255.29,-58.75 255.3,-55.25"/>
</g>
<!-- B902_&#45;&gt;B901 -->
<g id="edge10" class="edge">
<title>B902_:w&#45;&gt;B901:s</title>
<path fill="none" stroke="black" d="M196,-57C196,-57 133,-57 133,-57 133,-57 133,-117 133,-117"/>
<polygon fill="black" stroke="black" points="131.25,-117 133,-122 134.75,-117 131.25,-117"/>
</g>
</g>
</svg>
